# xmcd CD database file
#
# Track frame offsets:
#	150
#	11935
#	25095
#	44822
#	58187
#	76552
#	90142
#	102000
#	113062
#	128775
#
# Disc length: 1883 seconds
#
# Revision: 1
# Processed by: cddbd v1.5.2PL0 Copyright (c) Steve Scherf et al.
# Submitted via: CDex 1.51
#
DISCID=7107590a
DTITLE=Syl Johnson - Back For A Taste Of Your Love
DYEAR=1900
DGENRE=Soul
TTITLE0=Back For A Taste Of Your Love
TTITLE1=I'm Yours
TTITLE2=I Let A Good Girl Go
TTITLE3=Anyway The Wind Blows
TTITLE4=You Don't Know Me
TTITLE5=Feelin' Frisky
TTITLE6=We Did It
TTITLE7=Wind, Blow Her Back My Way
TTITLE8=I Hate I Walked Away
TTITLE9=The Love You Left Behind
EXTD=
EXTT0=
EXTT1=
EXTT2=
EXTT3=
EXTT4=
EXTT5=
EXTT6=
EXTT7=
EXTT8=
EXTT9=
PLAYORDER=
